<?xml version="1.0" encoding="UTF-8"?>
<svg enable-background="new 0 0 231 240" version="1.1" viewBox="0 0 231 240" xmlns="http://www.w3.org/2000/svg" xmlns:xlink="http://www.w3.org/1999/xlink">
 <linearGradient id="ak" x1="166.23" x2="170.3" y1="88.677" y2="98.651" gradientTransform="matrix(-1 0 0 1 219.08 0)" gradientUnits="userSpaceOnUse">
  <stop stop-color="#5A296C" offset="0"/>
  <stop stop-color="#6B357F" offset="1"/>
 </linearGradient>
 <path d="m44.241 95.498l10.755 4.493c0.139-0.586 0.289-1.175 0.438-1.756 0.154-0.586 0.311-1.168 0.464-1.75 0.159-0.584 0.319-1.158 0.485-1.735 0.161-0.58 0.326-1.161 0.497-1.731l-10.575-4.908c-0.181 0.609-0.364 1.221-0.539 1.835-0.182 0.61-0.358 1.217-0.528 1.837-0.176 0.615-0.347 1.233-0.519 1.849-0.158 0.621-0.324 1.238-0.478 1.866" fill="url(#ak)"/>
 <linearGradient id="z" x1="166.83" x2="170.9" y1="88.432" y2="98.416" gradientTransform="matrix(-1 0 0 1 219.08 0)" gradientUnits="userSpaceOnUse">
  <stop stop-color="#5A296C" offset="0"/>
  <stop stop-color="#6B357F" offset="1"/>
 </linearGradient>
 <path d="m46.306 88.111l10.575 4.908c0.101-0.369 0.214-0.732 0.321-1.096 0.111-0.362 0.218-0.73 0.329-1.091 0.114-0.366 0.226-0.728 0.337-1.092 0.114-0.366 0.225-0.728 0.343-1.091l-10.452-5.159c-0.127 0.385-0.257 0.769-0.374 1.154-0.118 0.382-0.245 0.772-0.362 1.152-0.123 0.387-0.241 0.774-0.358 1.156-0.119 0.39-0.242 0.776-0.359 1.159" fill="url(#z)"/>
 <linearGradient id="o" x1="165.49" x2="186.96" y1="116.68" y2="116.68" gradientTransform="matrix(-1 0 0 1 219.08 0)" gradientUnits="userSpaceOnUse">
  <stop stop-color="#5A296C" offset="0"/>
  <stop stop-color="#6B357F" offset="1"/>
 </linearGradient>
 <path d="m32.111 115.8l11.257 3.235c0.493-0.188 0.979-0.353 1.465-0.498 0.486-0.148 0.968-0.276 1.441-0.39 0.481-0.099 0.958-0.19 1.432-0.257 0.469-0.062 0.945-0.107 1.415-0.129 0.375-0.017 0.749-0.017 1.123-3e-3 0.378 0.014 0.751 0.042 1.122 0.088 0.372 0.044 0.742 0.104 1.108 0.183 0.375 0.079 0.744 0.179 1.112 0.288l-11.278-3.478c-0.362-0.107-0.728-0.204-1.095-0.278-0.37-0.077-0.737-0.134-1.106-0.171-0.369-0.042-0.743-0.064-1.117-0.072-0.367-7e-3 -0.742 2e-3 -1.121 0.03-0.464 0.03-0.939 0.086-1.41 0.165-0.475 0.079-0.951 0.181-1.431 0.301-0.474 0.125-0.961 0.273-1.446 0.436-0.487 0.15-0.968 0.34-1.471 0.54" fill="url(#o)"/>
 <defs>
  <path id="a" d="m62.831 80.163l10.333 5.781c0.284-0.871 0.549-1.737 0.808-2.604 0.26-0.86 0.506-1.72 0.737-2.57 0.234-0.854 0.447-1.701 0.655-2.542 0.203-0.844 0.397-1.673 0.567-2.505l-10.046-6.407c-0.198 0.876-0.404 1.759-0.635 2.651-0.225 0.889-0.471 1.791-0.722 2.697-0.256 0.906-0.522 1.819-0.806 2.734-0.282 0.915-0.581 1.842-0.891 2.765z"/>
 </defs>
 <linearGradient id="f" x1="68.631" x2="70.034" y1="73.19" y2="82.078" gradientUnits="userSpaceOnUse">
  <stop stop-color="#960D5C" offset="0"/>
  <stop stop-color="#BD1D73" offset="1"/>
 </linearGradient>
 <use fill="url(#f)" overflow="visible" xlink:href="#a"/>
 <clipPath id="e">
  <use overflow="visible" xlink:href="#a"/>
 </clipPath>
 <g clip-path="url(#e)">
  <linearGradient id="d" x1="149.29" x2="150.51" y1="73.686" y2="81.422" gradientTransform="matrix(-1 0 0 1 219.08 0)" gradientUnits="userSpaceOnUse">
   <stop stop-color="#960D5C" offset="0"/>
   <stop stop-color="#BD1D73" offset="1"/>
  </linearGradient>
  <path d="m62.831 80.163l10.333 5.781c0.112-0.354 0.225-0.707 0.336-1.054 0.106-0.353 0.22-0.702 0.327-1.055 0.106-0.35 0.208-0.7 0.314-1.042 0.102-0.35 0.202-0.7 0.299-1.048l-10.212-6.041c-0.106 0.366-0.212 0.734-0.331 1.105-0.113 0.375-0.224 0.742-0.343 1.117-0.111 0.369-0.229 0.742-0.351 1.117-0.12 0.374-0.245 0.744-0.372 1.12" fill="url(#d)"/>
  <linearGradient id="c" x1="148.69" x2="149.91" y1="73.777" y2="81.514" gradientTransform="matrix(-1 0 0 1 219.08 0)" gradientUnits="userSpaceOnUse">
   <stop stop-color="#960D5C" offset="0"/>
   <stop stop-color="#BD1D73" offset="1"/>
  </linearGradient>
  <path d="m64.229 75.704l10.212 6.041c0.145-0.509 0.282-1.015 0.417-1.524 0.132-0.506 0.261-1.011 0.384-1.514 0.128-0.505 0.246-1.001 0.362-1.497 0.112-0.499 0.22-0.992 0.327-1.488l-10.046-6.407c-0.118 0.519-0.241 1.048-0.368 1.571-0.128 0.528-0.262 1.059-0.394 1.589-0.145 0.536-0.284 1.071-0.433 1.601-0.15 0.544-0.3 1.084-0.461 1.628" fill="url(#c)"/>
 </g>
 <linearGradient id="b" x1="160.52" x2="174.45" y1="115.02" y2="115.02" gradientTransform="matrix(-1 0 0 1 219.08 0)" gradientUnits="userSpaceOnUse">
  <stop stop-color="#5A296C" offset="0"/>
  <stop stop-color="#6B357F" offset="1"/>
 </linearGradient>
 <path d="m47.21 117.63l11.343 3.417c-0.204-0.762-0.413-1.506-0.63-2.229-0.219-0.719-0.444-1.426-0.679-2.111-0.234-0.679-0.475-1.349-0.726-2-0.251-0.64-0.508-1.27-0.769-1.882l-11.125-3.83c0.245 0.64 0.492 1.297 0.721 1.97 0.23 0.684 0.456 1.383 0.668 2.097 0.218 0.723 0.427 1.464 0.63 2.224 0.198 0.75 0.384 1.54 0.567 2.34" fill="url(#b)"/>
 <linearGradient id="au" x1="170.61" x2="185.27" y1="140.23" y2="140.23" gradientTransform="matrix(-1 0 0 1 219.08 0)" gradientUnits="userSpaceOnUse">
  <stop stop-color="#531C59" offset="0"/>
  <stop stop-color="#211E52" offset="1"/>
 </linearGradient>
 <path d="m36.379 145.02l12.089 1.689c-0.293-0.89-0.565-1.789-0.832-2.679-0.256-0.888-0.507-1.779-0.748-2.674-0.24-0.878-0.465-1.766-0.683-2.651-0.221-0.878-0.428-1.756-0.631-2.641l-11.771-2.311c0.177 0.931 0.352 1.865 0.549 2.789 0.195 0.937 0.392 1.875 0.599 2.812 0.214 0.942 0.432 1.881 0.673 2.824 0.236 0.94 0.493 1.89 0.755 2.84" fill="url(#au)"/>
 <linearGradient id="at" x1="127.14" x2="145.88" y1="53.141" y2="53.141" gradientTransform="matrix(-1 0 0 1 219.08 0)" gradientUnits="userSpaceOnUse">
  <stop stop-color="#960D5C" offset="0"/>
  <stop stop-color="#8D0856" offset="1"/>
 </linearGradient>
 <path d="m73.202 54.607l9.641 7.37c0.72-0.806 1.452-1.605 2.189-2.399 0.742-0.792 1.489-1.58 2.242-2.356 0.76-0.79 1.534-1.567 2.308-2.342 0.774-0.784 1.56-1.559 2.354-2.336l-9.281-8.238c-0.821 0.854-1.644 1.704-2.456 2.558-0.802 0.85-1.598 1.7-2.386 2.558-0.786 0.854-1.56 1.713-2.335 2.576-0.764 0.863-1.523 1.732-2.276 2.609" fill="url(#at)"/>
 <linearGradient id="as" x1="131.49" x2="153.19" y1="74.25" y2="74.25" gradientTransform="matrix(-1 0 0 1 219.08 0)" gradientUnits="userSpaceOnUse">
  <stop stop-color="#960D5C" offset="0"/>
  <stop stop-color="#BD1D73" offset="1"/>
 </linearGradient>
 <path d="m65.885 69.315l10.046 6.407c1.089 0.017 2.141 0.109 3.167 0.259 1.036 0.148 2.041 0.369 3.008 0.658 0.981 0.285 1.927 0.642 2.84 1.066 0.918 0.427 1.799 0.922 2.644 1.483l-9.966-6.641c-0.843-0.561-1.729-1.054-2.654-1.474-0.918-0.413-1.87-0.755-2.858-1.026-0.971-0.267-1.985-0.461-3.033-0.582-1.03-0.122-2.094-0.171-3.194-0.15" fill="url(#as)"/>
 <linearGradient id="ar" x1="132.66" x2="174.45" y1="105.96" y2="105.96" gradientTransform="matrix(-1 0 0 1 219.08 0)" gradientUnits="userSpaceOnUse">
  <stop stop-color="#5A296C" offset="0"/>
  <stop stop-color="#6B357F" offset="1"/>
 </linearGradient>
 <path d="m44.624 108.99l11.125 3.83c1.458-1.276 2.92-2.419 4.395-3.42 1.485-1.01 2.969-1.875 4.459-2.607 1.512-0.739 3.017-1.334 4.529-1.787 1.521-0.454 3.055-0.767 4.577-0.922 1.057-0.118 2.11-0.152 3.167-0.12 1.059 0.03 2.116 0.132 3.173 0.315 1.068 0.176 2.125 0.433 3.183 0.765 1.068 0.336 2.131 0.751 3.182 1.243l-10.617-4.959c-1.067-0.496-2.14-0.913-3.219-1.239-1.069-0.327-2.146-0.573-3.228-0.733-1.067-0.162-2.14-0.247-3.214-0.252-1.063-5e-3 -2.13 0.064-3.204 0.208-1.543 0.213-3.098 0.575-4.653 1.101-1.526 0.514-3.07 1.179-4.602 2.002-1.517 0.808-3.041 1.763-4.558 2.863-1.494 1.11-2.999 2.35-4.495 3.73" fill="url(#ar)"/>
 <linearGradient id="aq" x1="158.9" x2="173.97" y1="154.7" y2="167.53" gradientTransform="matrix(-1 0 0 1 219.08 0)" gradientUnits="userSpaceOnUse">
  <stop stop-color="#531C59" offset="0"/>
  <stop stop-color="#211E52" offset="1"/>
 </linearGradient>
 <path d="m34.119 173.18l12.875-0.111c1.181-1.912 2.394-3.666 3.664-5.248 1.272-1.586 2.602-3.018 4.005-4.267 1.417-1.266 2.906-2.354 4.493-3.267 1.603-0.923 3.312-1.664 5.137-2.224l-12.314-1.017c-1.865 0.603-3.604 1.407-5.256 2.405-1.629 0.985-3.162 2.16-4.619 3.52-1.453 1.347-2.825 2.876-4.155 4.583-1.32 1.71-2.592 3.59-3.83 5.64" fill="url(#aq)"/>
 <linearGradient id="ap" x1="140.43" x2="168.12" y1="145.53" y2="157.34" gradientTransform="matrix(-1 0 0 1 219.08 0)" gradientUnits="userSpaceOnUse">
  <stop stop-color="#531C59" offset="0"/>
  <stop stop-color="#211E52" offset="1"/>
 </linearGradient>
 <path d="m51.979 157.05l12.314 1.017c-0.667-0.343-1.324-0.673-1.981-0.973-0.657-0.296-1.304-0.577-1.96-0.829-0.64-0.257-1.28-0.489-1.922-0.702-0.635-0.207-1.27-0.395-1.896-0.561l-12.304-1.2c0.625 0.173 1.261 0.375 1.891 0.595 0.641 0.221 1.281 0.466 1.927 0.732 0.646 0.269 1.303 0.563 1.956 0.883 0.655 0.32 1.318 0.67 1.975 1.04" fill="url(#ap)"/>
 <linearGradient id="ao" x1="106.52" x2="124.94" y1="54.768" y2="54.768" gradientTransform="matrix(-1 0 0 1 219.08 0)" gradientUnits="userSpaceOnUse">
  <stop stop-color="#BB181D" offset="0"/>
  <stop stop-color="#EB4E26" offset="1"/>
 </linearGradient>
 <path d="m94.138 55.604l9.264 8.143c0.787-0.69 1.566-1.395 2.346-2.111 0.768-0.716 1.542-1.448 2.305-2.184 0.766-0.749 1.523-1.501 2.271-2.271 0.757-0.769 1.5-1.55 2.227-2.337l-8.807-9.055c-0.774 0.867-1.555 1.727-2.345 2.577-0.791 0.845-1.582 1.678-2.387 2.499-0.801 0.817-1.612 1.621-2.424 2.413-0.807 0.79-1.629 1.566-2.451 2.326" fill="url(#ao)"/>
 <linearGradient id="an" x1="130.16" x2="139.73" y1="107.09" y2="94.868" gradientTransform="matrix(-1 0 0 1 219.08 0)" gradientUnits="userSpaceOnUse">
  <stop stop-color="#5A296C" offset="0"/>
  <stop stop-color="#6B357F" offset="1"/>
 </linearGradient>
 <path d="m88.839 112.43l10.506 4.521c-0.643-1.276-1.299-2.491-1.977-3.652-0.662-1.147-1.347-2.241-2.045-3.277-0.69-1.024-1.399-1.988-2.122-2.903-0.709-0.906-1.44-1.761-2.183-2.56l-10.468-5.199c0.737 0.834 1.462 1.726 2.179 2.676 0.716 0.959 1.42 1.977 2.116 3.057 0.695 1.089 1.373 2.243 2.042 3.453 0.665 1.23 1.316 2.52 1.952 3.88" fill="url(#an)"/>
 <linearGradient id="am" x1="130.63" x2="140.21" y1="107.46" y2="95.238" gradientTransform="matrix(-1 0 0 1 219.08 0)" gradientUnits="userSpaceOnUse">
  <stop stop-color="#5A296C" offset="0"/>
  <stop stop-color="#6B357F" offset="1"/>
 </linearGradient>
 <path d="m80.55 99.361l10.468 5.195c-0.694-0.76-1.415-1.477-2.13-2.139-0.722-0.663-1.448-1.277-2.186-1.847-0.733-0.565-1.47-1.084-2.216-1.56-0.738-0.473-1.486-0.903-2.238-1.288l-10.5-5.388c0.764 0.387 1.512 0.82 2.254 1.305 0.749 0.484 1.491 1.013 2.223 1.599 0.737 0.584 1.467 1.216 2.183 1.897 0.728 0.696 1.444 1.438 2.142 2.226" fill="url(#am)"/>
 <linearGradient id="al" x1="118.64" x2="154.77" y1="104.29" y2="49.428" gradientTransform="matrix(-1 0 0 1 219.08 0)" gradientUnits="userSpaceOnUse">
  <stop stop-color="#BD181D" offset="0"/>
  <stop stop-color="#C41B73" offset="1"/>
 </linearGradient>
 <path d="m82.654 44.305c-2.53 1.311-4.998 2.725-7.412 4.241-2.365 1.488-4.684 3.087-6.965 4.8-2.243 1.678-4.442 3.474-6.627 5.397-2.151 1.894-4.282 3.911-6.404 6.063 1.047 0.661 2.003 1.432 2.851 2.348 0.873 0.929 1.63 2.004 2.276 3.237 0.658 1.256 1.197 2.674 1.608 4.289 0.416 1.632 0.704 3.451 0.849 5.483 0.31-0.922 0.609-1.85 0.891-2.765 0.284-0.915 0.55-1.828 0.806-2.734 0.251-0.906 0.497-1.808 0.722-2.697 0.231-0.893 0.437-1.775 0.635-2.651 3.895-0.072 7.392 0.756 10.425 2.436 3.167 1.757 5.827 4.428 7.904 7.978 2.157 3.678 3.679 8.263 4.486 13.667 0.827 5.578 0.897 11.964 0.139 19.031 2.18-8.316 3.307-16.035 3.45-22.968 0.14-6.744-0.646-12.666-2.259-17.644-1.555-4.801-3.855-8.689-6.794-11.602-2.813-2.78-6.188-4.662-10.035-5.607 0.753-0.877 1.512-1.746 2.275-2.61 0.775-0.863 1.549-1.723 2.335-2.576 0.789-0.858 1.584-1.708 2.386-2.558 0.814-0.856 1.637-1.706 2.458-2.56z" fill="url(#al)"/>
 <linearGradient id="aj" x1="88.536" x2="95.29" y1="67.417" y2="99.69" gradientUnits="userSpaceOnUse">
  <stop stop-color="#960D5C" offset="0"/>
  <stop stop-color="#A22155" offset=".9835"/>
 </linearGradient>
 <path d="m88.839 112.43l10.506 4.521c1.554-6.12 2.466-11.915 2.781-17.298 0.311-5.283 0.031-10.131-0.769-14.471-0.784-4.243-2.071-7.976-3.802-11.167-1.684-3.096-3.783-5.664-6.238-7.672l-9.602-7.499c2.467 2.023 4.55 4.653 6.207 7.863 1.708 3.313 2.947 7.234 3.668 11.711 0.737 4.598 0.913 9.758 0.491 15.414-0.441 5.759-1.509 11.989-3.245 18.599" fill="url(#aj)"/>
 <path d="m81.715 58.841l9.602 7.499c-0.034-0.025-0.068-0.058-0.101-0.086-0.039-0.025-0.069-0.051-0.102-0.085-0.037-0.026-0.074-0.051-0.108-0.079-0.031-0.028-0.067-0.056-0.101-0.082l-9.602-7.502c0.027 0.034 0.065 0.06 0.101 0.086 0.032 0.027 0.071 0.056 0.103 0.082 0.032 0.029 0.07 0.056 0.106 0.083 0.033 0.029 0.071 0.059 0.102 0.084" fill="#746E5E"/>
 <linearGradient id="ai" x1="189.28" x2="109.88" y1="104.66" y2="90.836" gradientTransform="matrix(-1 0 0 1 219.08 0)" gradientUnits="userSpaceOnUse">
  <stop stop-color="#703078" offset="0"/>
  <stop stop-color="#BD1D73" offset="1"/>
 </linearGradient>
 <path d="m47.759 83.49c-1.591 2.463-3.108 4.961-4.545 7.51-1.435 2.538-2.797 5.128-4.09 7.786-1.293 2.661-2.516 5.395-3.685 8.215-1.165 2.834-2.271 5.763-3.328 8.8 0.503-0.202 0.984-0.387 1.469-0.551 0.485-0.163 0.972-0.311 1.446-0.436 0.48-0.121 0.957-0.223 1.431-0.301 0.471-0.079 0.946-0.134 1.41-0.165 0.806-0.053 1.603-0.037 2.393 0.058s1.57 0.273 2.35 0.533c0.779 0.262 1.549 0.614 2.312 1.054 0.771 0.45 1.528 0.987 2.287 1.634-0.183-0.799-0.37-1.583-0.567-2.343-0.204-0.76-0.413-1.501-0.63-2.224-0.212-0.714-0.438-1.413-0.668-2.097-0.229-0.672-0.476-1.33-0.721-1.97 1.496-1.381 3.001-2.62 4.497-3.712 1.517-1.101 3.041-2.055 4.558-2.863 1.532-0.823 3.075-1.488 4.602-2.002 1.555-0.526 3.11-0.888 4.653-1.101 2.19-0.299 4.368-0.278 6.52 0.056 2.211 0.345 4.401 1.031 6.542 2.056 2.211 1.054 4.385 2.472 6.494 4.265 2.179 1.842 4.305 4.088 6.35 6.736-2.2-4.72-4.641-8.659-7.257-11.852-2.517-3.073-5.192-5.46-7.996-7.2-2.69-1.678-5.506-2.753-8.385-3.263-2.783-0.491-5.643-0.449-8.539 0.096-1.036 0.197-2.077 0.46-3.125 0.78-1.03 0.327-2.066 0.705-3.108 1.154-1.036 0.436-2.072 0.941-3.103 1.507-1.031 0.553-2.062 1.175-3.085 1.849 0.256-1.022 0.529-2.033 0.806-3.041 0.278-1.008 0.566-2.009 0.865-3.007 0.294-0.999 0.592-1.993 0.902-2.985 0.311-0.989 0.624-1.978 0.945-2.97z" fill="url(#ai)"/>
 <linearGradient id="ah" x1="127.12" x2="199.38" y1="116.59" y2="162.53" gradientTransform="matrix(-1 0 0 1 219.08 0)" gradientUnits="userSpaceOnUse">
  <stop stop-color="#703078" offset="0"/>
  <stop stop-color="#211E52" offset="1"/>
 </linearGradient>
 <path d="m78.569 112.01c-4.832 0.315-9.34 1.389-13.532 3.114-4.038 1.665-7.814 3.96-11.303 6.815-3.4 2.792-6.574 6.141-9.473 10.015-2.869 3.816-5.507 8.18-7.882 13.064-0.263-0.945-0.519-1.893-0.754-2.841-0.241-0.943-0.458-1.882-0.673-2.824-0.207-0.937-0.404-1.875-0.599-2.812-0.197-0.924-0.372-1.858-0.549-2.789-0.394 3.121-0.705 6.235-0.908 9.356-0.202 3.172-0.309 6.358-0.299 9.577 6e-3 3.271 0.133 6.581 0.38 9.952 0.246 3.441 0.625 6.944 1.143 10.544 1.238-2.053 2.51-3.928 3.829-5.625 1.331-1.707 2.702-3.236 4.155-4.583 1.457-1.359 2.99-2.534 4.619-3.52 1.651-0.998 3.391-1.803 5.256-2.405-0.656-0.373-1.32-0.714-1.976-1.038-0.653-0.319-1.31-0.614-1.956-0.883-0.646-0.267-1.286-0.512-1.927-0.732-0.63-0.22-1.266-0.422-1.891-0.595 1.964-6.178 4.368-11.631 7.141-16.365 2.797-4.767 6.013-8.889 9.607-12.318 3.673-3.505 7.785-6.354 12.31-8.464 4.69-2.194 9.879-3.636 15.552-4.225-0.913-0.125-1.805-0.234-2.696-0.312-0.875-0.079-1.748-0.134-2.606-0.167-0.851-0.035-1.694-0.046-2.521-0.035-0.823-0.02-1.646 0.02-2.447 0.07z" fill="url(#ah)"/>
 <linearGradient id="ag" x1="140.12" x2="165.98" y1="122.08" y2="145.09" gradientTransform="matrix(-1 0 0 1 219.08 0)" gradientUnits="userSpaceOnUse">
  <stop stop-color="#531C59" offset="0"/>
  <stop stop-color="#211E52" offset="1"/>
 </linearGradient>
 <path d="m44.229 153.8l12.304 1.2c1.789-5.766 4.032-10.852 6.66-15.257 2.65-4.439 5.735-8.254 9.197-11.42 3.535-3.228 7.514-5.82 11.904-7.721 4.534-1.967 9.565-3.214 15.05-3.654l-10.506-4.521c-5.672 0.588-10.861 2.03-15.552 4.225-4.524 2.111-8.636 4.959-12.31 8.464-3.595 3.43-6.81 7.552-9.607 12.318-2.772 4.73-5.175 10.18-7.14 16.36" fill="url(#ag)"/>
 <linearGradient id="af" x1="149.05" x2="172.29" y1="188.09" y2="188.09" gradientTransform="matrix(-1 0 0 1 219.08 0)" gradientUnits="userSpaceOnUse">
  <stop stop-color="#008BC0" offset="0"/>
  <stop stop-color="#005AA9" offset="1"/>
 </linearGradient>
 <path d="m56.96 191.69l13.07-1.563c-0.909-0.417-1.811-0.856-2.692-1.309-0.876-0.45-1.737-0.916-2.581-1.389-0.843-0.477-1.666-0.956-2.477-1.453-0.812-0.483-1.607-0.983-2.388-1.489l-13.106 1.024c0.787 0.552 1.583 1.093 2.383 1.624 0.816 0.54 1.638 1.068 2.483 1.587 0.849 0.522 1.715 1.031 2.59 1.522 0.886 0.5 1.796 0.99 2.718 1.45" fill="url(#af)"/>
 <linearGradient id="ae" x1="101.7" x2="121.78" y1="31.845" y2="105.89" gradientTransform="matrix(-1 0 0 1 219.08 0)" gradientUnits="userSpaceOnUse">
  <stop stop-color="#E92127" offset="0"/>
  <stop stop-color="#F07522" offset="1"/>
 </linearGradient>
 <path d="m103.74 45.789c2.52 3.993 4.117 8.637 4.769 13.782 0.661 5.282 0.325 11.013-0.983 16.977-1.323 6.043-3.625 12.226-6.813 18.346-3.172 6.083-7.178 11.999-11.878 17.534 6.287-5.367 11.887-11.436 16.646-17.965 4.843-6.647 8.72-13.646 11.52-20.728 2.794-7.065 4.46-14.075 4.954-20.766 0.487-6.553-0.147-12.682-1.899-18.178 1.239-0.345 2.483-0.67 3.729-0.982 1.265-0.308 2.532-0.607 3.805-0.886 1.288-0.282 2.583-0.553 3.893-0.809 1.323-0.262 2.658-0.512 3.998-0.754-2.921-1.073-5.87-1.922-8.849-2.553-2.896-0.614-5.811-1.018-8.786-1.216-2.878-0.199-5.803-0.195-8.78 2e-3 -2.89 0.19-5.831 0.569-8.828 1.129 0.194 1.981 0.242 4.014 0.117 6.111-0.126 2.105-0.421 4.271-0.906 6.503-0.492 2.243-1.159 4.551-2.045 6.928-0.882 2.379-1.964 4.821-3.268 7.339 0.822-0.761 1.644-1.536 2.45-2.328 0.812-0.792 1.623-1.595 2.424-2.413 0.806-0.821 1.597-1.654 2.387-2.499 0.79-0.849 1.57-1.71 2.34-2.576z" fill="url(#ae)"/>
 <linearGradient id="ad" x1="110.33" x2="110.33" y1="51.144" y2="112.44" gradientTransform="matrix(-1 0 0 1 219.08 0)" gradientUnits="userSpaceOnUse">
  <stop stop-color="#BB181D" offset="0"/>
  <stop stop-color="#E92127" offset=".5769"/>
  <stop stop-color="#EC4F26" offset=".8396"/>
  <stop stop-color="#EE6726" offset="1"/>
 </linearGradient>
 <path d="m88.839 112.43l10.506 4.521c3.663-2.984 7.069-6.214 10.2-9.663 3.171-3.489 6.023-7.169 8.535-10.983 2.53-3.838 4.695-7.789 6.465-11.792 1.775-4 3.147-8.032 4.107-12.027l-8.468-8.615c-1.076 4.316-2.582 8.687-4.509 13.043-1.928 4.357-4.254 8.662-6.97 12.863-2.692 4.167-5.735 8.199-9.101 12.033-3.31 3.77-6.911 7.33-10.76 10.62" fill="url(#ad)"/>
 <linearGradient id="ac" x1="93.903" x2="93.903" y1="51.146" y2="112.44" gradientTransform="matrix(-1 0 0 1 219.08 0)" gradientUnits="userSpaceOnUse">
  <stop stop-color="#BB181D" offset="0"/>
  <stop stop-color="#E92127" offset=".5769"/>
  <stop stop-color="#EC4F26" offset=".8396"/>
  <stop stop-color="#EE6726" offset="1"/>
 </linearGradient>
 <path d="m120.18 63.868l8.468 8.615c0.588-2.474 1.028-4.924 1.292-7.343 0.273-2.401 0.382-4.764 0.327-7.076-0.046-2.291-0.26-4.527-0.631-6.69-0.359-2.147-0.873-4.222-1.536-6.211l-8.045-10.371c0.663 2.084 1.17 4.258 1.513 6.52 0.346 2.288 0.533 4.655 0.55 7.097 0.017 2.462-0.135 4.987-0.46 7.562-0.32 2.595-0.82 5.232-1.48 7.897" fill="url(#ac)"/>
 <linearGradient id="ab" x1="133.81" x2="142.97" y1="135.02" y2="173.3" gradientTransform="matrix(-1 0 0 1 219.08 0)" gradientUnits="userSpaceOnUse">
  <stop stop-color="#008BC0" offset="0"/>
  <stop stop-color="#005C92" offset=".3791"/>
  <stop stop-color="#0064B0" offset=".7912"/>
  <stop stop-color="#0060A9" offset=".8321"/>
  <stop stop-color="#005192" offset="1"/>
 </linearGradient>
 <path d="m71.744 188.87l12.616-1.42c-1.145-3.771-1.998-7.453-2.591-11.032-0.587-3.521-0.907-6.963-0.993-10.333-0.091-3.323 0.059-6.572 0.422-9.754 0.362-3.157 0.939-6.253 1.735-9.284l-11.674-1.995c-0.886 3.271-1.554 6.617-2.007 10.021-0.456 3.448-0.681 6.968-0.673 10.555 4e-3 3.647 0.255 7.388 0.768 11.209 0.518 3.89 1.307 7.9 2.397 12.02" fill="url(#ab)"/>
 <linearGradient id="aa" x1="134.69" x2="143.85" y1="134.81" y2="173.09" gradientTransform="matrix(-1 0 0 1 219.08 0)" gradientUnits="userSpaceOnUse">
  <stop stop-color="#008BC0" offset="0"/>
  <stop stop-color="#005C92" offset=".3791"/>
  <stop stop-color="#0064B0" offset=".7912"/>
  <stop stop-color="#0060A9" offset=".8321"/>
  <stop stop-color="#005192" offset="1"/>
 </linearGradient>
 <path d="m71.258 145.05l11.674 1.995c0.699-2.679 1.56-5.317 2.591-7.901 1.03-2.591 2.219-5.133 3.577-7.634 1.368-2.505 2.899-4.968 4.593-7.384 1.704-2.436 3.588-4.83 5.651-7.179l-10.506-4.521c-2.179 2.561-4.177 5.175-5.987 7.816-1.804 2.63-3.434 5.302-4.892 8.017-1.452 2.706-2.734 5.457-3.85 8.254-1.116 2.79-2.071 5.64-2.851 8.53" fill="url(#aa)"/>
 <linearGradient id="y" x1="135.59" x2="138.24" y1="179.79" y2="214.41" gradientTransform="matrix(-1 0 0 1 219.08 0)" gradientUnits="userSpaceOnUse">
  <stop stop-color="#008BC0" offset="0"/>
  <stop stop-color="#005AA9" offset="1"/>
 </linearGradient>
 <path d="m74.045 221.03l13.218-4.31c-0.085-2.076-0.106-4.092-0.074-6.059 0.031-1.945 0.124-3.849 0.283-5.707 0.149-1.844 0.374-3.649 0.652-5.408 0.284-1.754 0.631-3.474 1.052-5.162l-12.613 2.108c-0.471 1.845-0.876 3.727-1.207 5.654-0.342 1.933-0.61 3.909-0.812 5.932-0.204 2.041-0.348 4.13-0.433 6.277-0.087 2.16-0.109 4.39-0.066 6.68" fill="url(#y)"/>
 <linearGradient id="x" x1="132.89" x2="135.54" y1="179.99" y2="214.61" gradientTransform="matrix(-1 0 0 1 219.08 0)" gradientUnits="userSpaceOnUse">
  <stop stop-color="#008BC0" offset="0"/>
  <stop stop-color="#005AA9" offset="1"/>
 </linearGradient>
 <path d="m76.562 196.49l12.613-2.108c0.294-1.191 0.62-2.364 0.994-3.524 0.365-1.157 0.764-2.308 1.208-3.438 0.438-1.138 0.919-2.257 1.431-3.372 0.523-1.111 1.079-2.217 1.682-3.318l-12.097 0.853c-0.646 1.195-1.254 2.399-1.815 3.614-0.566 1.22-1.09 2.443-1.57 3.681-0.48 1.241-0.929 2.496-1.329 3.76-0.413 1.28-0.78 2.56-1.117 3.86" fill="url(#x)"/>
 <linearGradient id="w" x1="157.36" x2="147.55" y1="216.28" y2="107.89" gradientTransform="matrix(-1 0 0 1 219.08 0)" gradientUnits="userSpaceOnUse">
  <stop stop-color="#008BC0" offset="0"/>
  <stop stop-color="#005AA9" offset="1"/>
 </linearGradient>
 <path d="m88.839 112.43c-6.067 5.177-11.161 10.738-15.375 16.591-4.14 5.756-7.489 11.906-10.062 18.359-2.586 6.468-4.432 13.361-5.518 20.619-1.104 7.405-1.441 15.313-0.924 23.692-0.922-0.462-1.832-0.945-2.718-1.445-0.875-0.491-1.741-1-2.59-1.522-0.845-0.519-1.667-1.047-2.483-1.587-0.8-0.531-1.596-1.072-2.383-1.624 1.485 3.128 3.104 6.185 4.877 9.167 1.827 3.064 3.814 6.057 5.982 8.972 2.243 3 4.683 5.93 7.354 8.776 2.756 2.944 5.762 5.812 9.046 8.601-0.063-3.899 0.038-7.607 0.333-11.153 0.289-3.506 0.753-6.867 1.426-10.1 0.666-3.221 1.531-6.334 2.627-9.355 1.084-3.01 2.403-5.955 3.962-8.838-0.96 0.535-1.901 1.092-2.831 1.666-0.923 0.576-1.827 1.169-2.718 1.778-0.882 0.604-1.752 1.228-2.6 1.874-0.855 0.642-1.682 1.302-2.5 1.972-2.028-7.69-3.038-15.044-3.156-22.021-0.112-6.784 0.613-13.335 2.108-19.593 1.481-6.19 3.733-12.201 6.724-17.974 3.012-5.8 6.811-11.44 11.419-16.86z" fill="url(#w)"/>
 <linearGradient id="v" x1="63.95" x2="86.133" y1="62.87" y2="62.87" gradientTransform="matrix(-1 0 0 1 219.08 0)" gradientUnits="userSpaceOnUse">
  <stop stop-color="#C9591B" offset="0"/>
  <stop stop-color="#F07522" offset="1"/>
 </linearGradient>
 <path d="m132.94 59.042l7.77 9.385c1.138 0 2.289-0.018 3.455-0.058 1.175-0.046 2.361-0.107 3.554-0.197 1.21-0.085 2.434-0.192 3.662-0.327 1.236-0.134 2.488-0.287 3.742-0.468l-6.852-10.066c-1.348 0.243-2.682 0.462-4.005 0.657-1.31 0.197-2.607 0.364-3.893 0.505-1.272 0.146-2.533 0.266-3.777 0.358-1.23 0.096-2.44 0.169-3.65 0.211" fill="url(#v)"/>
 <linearGradient id="u" x1="43.251" x2="130.24" y1="89.668" y2="89.668" gradientTransform="matrix(-1 0 0 1 219.08 0)" gradientUnits="userSpaceOnUse">
  <stop stop-color="#F07522" offset="0"/>
  <stop stop-color="#F6A41B" offset=".3901"/>
  <stop stop-color="#F07522" offset="1"/>
 </linearGradient>
 <path d="m88.839 112.43l10.506 4.521c0.89 0.142 1.783 0.255 2.68 0.354 0.908 0.098 1.821 0.174 2.735 0.229 0.917 0.056 1.841 0.086 2.765 0.1 0.936 0.011 1.865 2e-3 2.804-0.03 5.94-0.202 11.932-1.282 17.867-3.219 6.165-2.019 12.207-4.955 17.958-8.755 5.93-3.92 11.484-8.717 16.48-14.294 5.095-5.679 9.551-12.101 13.191-19.112l-5.317-10.523c-4.023 7.777-8.906 14.935-14.462 21.3-5.453 6.238-11.468 11.625-17.861 16.061-6.178 4.279-12.634 7.619-19.187 9.955-6.275 2.238-12.584 3.533-18.779 3.879-0.977 0.055-1.954 0.083-2.919 0.088-0.963 0.012-1.924-9e-3 -2.875-0.044-0.944-0.039-1.885-0.106-2.819-0.188-0.921-0.08-1.844-0.19-2.758-0.32" fill="url(#u)"/>
 <linearGradient id="t" x1="122.5" x2="95.212" y1="127.37" y2="183.57" gradientTransform="matrix(-1 0 0 1 219.08 0)" gradientUnits="userSpaceOnUse">
  <stop stop-color="#94BD47" offset="0"/>
  <stop stop-color="#A5C244" offset=".4945"/>
  <stop stop-color="#60953E" offset="1"/>
 </linearGradient>
 <path d="m126.24 182.67l9.806-1.102c-2.804-1.243-5.434-2.605-7.883-4.07-2.402-1.432-4.642-2.964-6.725-4.584-2.038-1.587-3.929-3.265-5.677-5.021-1.712-1.729-3.283-3.526-4.72-5.401l-10.976-0.859c1.474 2.046 3.093 4.016 4.861 5.906 1.803 1.924 3.769 3.767 5.896 5.518 2.179 1.789 4.528 3.488 7.059 5.072 2.59 1.62 5.37 3.14 8.36 4.53" fill="url(#t)"/>
 <linearGradient id="s" x1="125.04" x2="97.756" y1="128.61" y2="184.81" gradientTransform="matrix(-1 0 0 1 219.08 0)" gradientUnits="userSpaceOnUse">
  <stop stop-color="#94BD47" offset="0"/>
  <stop stop-color="#A5C244" offset=".4945"/>
  <stop stop-color="#60953E" offset="1"/>
 </linearGradient>
 <path d="m100.06 161.63l10.976 0.859c-2.472-3.221-4.555-6.655-6.249-10.271-1.65-3.527-2.942-7.233-3.882-11.091-0.924-3.774-1.506-7.71-1.769-11.776-0.251-3.995-0.182-8.143 0.205-12.406l-10.506-4.521c-0.491 4.59-0.656 9.044-0.481 13.35 0.183 4.379 0.701 8.617 1.576 12.69 0.897 4.167 2.164 8.176 3.809 11.995 1.691 3.93 3.794 7.66 6.316 11.17" fill="url(#s)"/>
 <linearGradient id="r" x1="30.031" x2="48.568" y1="73.382" y2="73.382" gradientTransform="matrix(-1 0 0 1 219.08 0)" gradientUnits="userSpaceOnUse">
  <stop stop-color="#C9591B" offset="0"/>
  <stop stop-color="#F07522" offset="1"/>
 </linearGradient>
 <path d="m170.51 61.699l5.317 10.523c1.128 0.95 2.246 1.93 3.346 2.931 1.114 1.017 2.209 2.058 3.306 3.119 1.1 1.08 2.194 2.183 3.275 3.305 1.104 1.147 2.197 2.306 3.293 3.489l-4.207-9.832c-1.198-1.263-2.39-2.498-3.586-3.705-1.186-1.193-2.37-2.359-3.562-3.497-1.18-1.119-2.369-2.212-3.58-3.276-1.19-1.053-2.39-2.066-3.6-3.057" fill="url(#r)"/>
 <linearGradient id="q" x1="30.031" x2="39.877" y1="69.7" y2="69.7" gradientTransform="matrix(-1 0 0 1 219.08 0)" gradientUnits="userSpaceOnUse">
  <stop stop-color="#C9591B" offset="0"/>
  <stop stop-color="#F07522" offset="1"/>
 </linearGradient>
 <path d="m184.84 75.233l4.207 9.832c-0.287-1.729-0.609-3.446-0.978-5.123-0.364-1.671-0.765-3.309-1.2-4.924-0.44-1.604-0.92-3.175-1.439-4.726-0.512-1.534-1.063-3.042-1.654-4.52l-4.574-11.438c0.638 1.589 1.233 3.207 1.78 4.865 0.552 1.665 1.063 3.366 1.533 5.101 0.476 1.748 0.896 3.529 1.287 5.346 0.37 1.829 0.72 3.69 1.03 5.587" fill="url(#q)"/>
 <linearGradient id="p" x1="95.365" x2="44.517" y1="106.33" y2="49.683" gradientTransform="matrix(-1 0 0 1 219.08 0)" gradientUnits="userSpaceOnUse">
  <stop stop-color="#EDBC1C" offset="0"/>
  <stop stop-color="#F07522" offset="1"/>
 </linearGradient>
 <path d="m163.37 29.685c-2.012 3.15-4.151 6.141-6.429 8.977-2.264 2.811-4.657 5.447-7.208 7.919-2.521 2.446-5.189 4.715-8.01 6.809-2.78 2.062-5.701 3.943-8.776 5.653 1.205-0.043 2.422-0.115 3.656-0.21 1.244-0.093 2.505-0.213 3.777-0.358 1.285-0.141 2.583-0.308 3.893-0.505 1.323-0.195 2.657-0.414 4.005-0.657-2.13 7.823-5.389 15.178-9.58 21.842-4.139 6.595-9.106 12.386-14.654 17.238-5.399 4.725-11.267 8.479-17.368 11.192-5.859 2.607-11.862 4.227-17.833 4.843 0.914 0.132 1.837 0.239 2.767 0.322 0.934 0.082 1.875 0.148 2.819 0.188 0.951 0.035 1.912 0.056 2.875 0.044 0.965-5e-3 1.943-0.033 2.919-0.088 6.195-0.346 12.503-1.641 18.779-3.879 6.553-2.336 13.009-5.676 19.187-9.955 6.394-4.435 12.408-9.823 17.861-16.061 5.556-6.366 10.438-13.523 14.462-21.3 1.216 0.992 2.411 2.004 3.603 3.057 1.211 1.064 2.4 2.157 3.58 3.276 1.191 1.138 2.376 2.303 3.562 3.497 1.196 1.208 2.388 2.442 3.586 3.705-0.766-4.796-1.807-9.373-3.134-13.741-1.288-4.271-2.861-8.331-4.704-12.168-1.791-3.746-3.851-7.278-6.161-10.601-2.27-3.203-4.76-6.221-7.49-9.024z" fill="url(#p)"/>
 <path d="m129.59 146.78l9.116 2.331c0.871 0.227 1.756 0.434 2.65 0.623 0.901 0.19 1.808 0.368 2.733 0.521 0.923 0.162 1.858 0.299 2.807 0.422 0.952 0.128 1.915 0.231 2.888 0.315 2.309 0.205 4.671 0.31 7.084 0.303 2.458-5e-3 4.963-0.122 7.514-0.354 2.599-0.238 5.24-0.594 7.926-1.072 2.731-0.487 5.503-1.102 8.316-1.843l-5.528-2.854c-3.104 0.854-6.155 1.568-9.156 2.137-2.945 0.559-5.835 0.976-8.664 1.261-2.779 0.282-5.506 0.431-8.165 0.456-2.617 0.032-5.171-0.062-7.665-0.273-1.041-0.083-2.072-0.197-3.098-0.324-1.014-0.121-2.018-0.271-3.013-0.436-0.98-0.17-1.96-0.355-2.916-0.557-0.97-0.21-1.91-0.43-2.84-0.66" fill="#8EB12F"/>
 <linearGradient id="n" x1="143.18" x2="81.626" y1="129.65" y2="225.1" gradientTransform="matrix(-1 0 0 1 219.08 0)" gradientUnits="userSpaceOnUse">
  <stop stop-color="#CFDC27" offset="0"/>
  <stop stop-color="#76B34B" offset="1"/>
 </linearGradient>
 <path d="m88.839 112.43c-2.216 8.43-3.424 16.591-3.674 24.426-0.256 8.063 0.501 15.912 2.275 23.443 1.853 7.874 4.832 15.519 8.986 22.809 4.414 7.73 10.217 15.181 17.52 22.146-1.342 0.89-2.682 1.74-4.018 2.552-1.329 0.804-2.659 1.567-3.987 2.312-1.322 0.729-2.638 1.431-3.954 2.111-1.308 0.665-2.604 1.316-3.908 1.941 4.148 0.845 8.398 1.423 12.774 1.694 4.518 0.289 9.16 0.25 13.929-0.137 4.924-0.404 9.98-1.189 15.178-2.378 5.358-1.234 10.862-2.9 16.512-5.048-3.695-3.606-6.988-7.215-9.917-10.861-2.836-3.547-5.329-7.146-7.485-10.836-2.105-3.605-3.902-7.301-5.38-11.136-1.454-3.759-2.618-7.654-3.492-11.729-0.438 1.539-0.844 3.094-1.23 4.653-0.385 1.562-0.742 3.131-1.066 4.704-0.336 1.583-0.638 3.167-0.913 4.758-0.279 1.601-0.528 3.206-0.748 4.819-8.058-3.773-14.693-8.451-20.017-13.784-5.015-5.038-8.922-10.721-11.781-16.871-2.734-5.869-4.539-12.234-5.446-18.959-0.891-6.48-0.939-13.39-0.164-20.61z" fill="url(#n)"/>
 <linearGradient id="m" x1="65.646" x2="86.626" y1="197.33" y2="160.06" gradientTransform="matrix(-1 0 0 1 219.08 0)" gradientUnits="userSpaceOnUse">
  <stop stop-color="#94BD47" offset="0"/>
  <stop stop-color="#60953E" offset="1"/>
 </linearGradient>
 <path d="m156.47 208.3l7.729-4.084c-0.851-0.785-1.679-1.575-2.482-2.368-0.802-0.781-1.575-1.568-2.333-2.354-0.756-0.78-1.48-1.565-2.196-2.354-0.707-0.777-1.389-1.56-2.056-2.348l-8.467 2.778c0.716 0.893 1.455 1.781 2.212 2.665 0.774 0.896 1.56 1.785 2.378 2.676 0.818 0.895 1.655 1.794 2.523 2.686 0.88 0.89 1.78 1.79 2.7 2.69" fill="url(#m)"/>
 <linearGradient id="l" x1="67.081" x2="88.057" y1="198.15" y2="160.88" gradientTransform="matrix(-1 0 0 1 219.08 0)" gradientUnits="userSpaceOnUse">
  <stop stop-color="#94BD47" offset="0"/>
  <stop stop-color="#60953E" offset="1"/>
 </linearGradient>
 <path d="m146.67 197.57l8.467-2.778c-2.01-2.374-3.836-4.774-5.492-7.223-1.622-2.407-3.086-4.864-4.377-7.39-1.276-2.482-2.4-5.033-3.364-7.658-0.952-2.594-1.754-5.268-2.41-8.032l-9.292-0.751c0.657 3.059 1.478 6.019 2.457 8.894 1.004 2.922 2.166 5.758 3.512 8.528 1.362 2.814 2.906 5.565 4.632 8.268 1.75 2.75 3.71 5.46 5.86 8.14" fill="url(#l)"/>
 <linearGradient id="k" x1="11.152" x2="48.359" y1="137.86" y2="137.86" gradientTransform="matrix(-1 0 0 1 219.08 0)" gradientUnits="userSpaceOnUse">
  <stop stop-color="#8EB12F" offset="0"/>
  <stop stop-color="#B4D234" offset=".3901"/>
  <stop stop-color="#8EB12F" offset="1"/>
 </linearGradient>
 <path d="m170.72 170.09l6.104 0.155c3.612-3.902 6.995-8.006 10.142-12.339 3.17-4.365 6.082-8.949 8.722-13.753 2.646-4.813 5.003-9.829 7.053-15.053 2.045-5.219 3.778-10.618 5.188-16.195l-2.3-7.432c-1.589 6.264-3.547 12.337-5.861 18.215-2.313 5.889-4.964 11.552-7.946 16.988-2.964 5.417-6.232 10.587-9.782 15.516-3.52 4.89-7.3 9.52-11.31 13.9" fill="url(#k)"/>
 <linearGradient id="j" x1="117.85" x2="130.24" y1="115.79" y2="115.79" gradientTransform="matrix(-1 0 0 1 219.08 0)" gradientUnits="userSpaceOnUse">
  <stop stop-color="#F7AB1A" offset="0"/>
  <stop stop-color="#F7AB1A" offset="1"/>
 </linearGradient>
 <path d="m90.735 114.75l10.489 4.395c-0.161-0.173-0.32-0.356-0.473-0.537-0.162-0.181-0.323-0.362-0.478-0.544-0.16-0.186-0.315-0.369-0.468-0.552-0.151-0.192-0.307-0.371-0.46-0.565l-10.506-4.521c0.156 0.197 0.309 0.396 0.46 0.591 0.16 0.197 0.314 0.391 0.469 0.583 0.165 0.195 0.321 0.385 0.48 0.582 0.164 0.2 0.33 0.39 0.49 0.58" fill="url(#j)"/>
 <linearGradient id="i" x1="99.504" x2="128.34" y1="123.25" y2="123.25" gradientTransform="matrix(-1 0 0 1 219.08 0)" gradientUnits="userSpaceOnUse">
  <stop stop-color="#F7AB1A" offset="0"/>
  <stop stop-color="#F7AB1A" offset="1"/>
 </linearGradient>
 <path d="m109.61 128.03l9.959 3.716c-1.798-0.674-3.544-1.454-5.232-2.34-1.654-0.874-3.253-1.847-4.799-2.915-1.513-1.052-2.971-2.201-4.364-3.439-1.38-1.214-2.698-2.519-3.954-3.907l-10.489-4.395c1.272 1.464 2.607 2.843 4.011 4.124 1.425 1.303 2.916 2.517 4.475 3.627 1.585 1.126 3.237 2.155 4.956 3.073 1.74 0.93 3.56 1.75 5.43 2.45" fill="url(#i)"/>
 <radialGradient id="h" cx="129.19" cy="119.89" r="115.14" gradientTransform="matrix(-1 0 0 1 219.08 0)" gradientUnits="userSpaceOnUse">
  <stop stop-color="#EDBC1C" offset="0"/>
  <stop stop-color="#99AE26" offset="1"/>
 </radialGradient>
 <path d="m154.56 104.22c0.797 1.212 1.617 2.408 2.473 3.597 0.872 1.2 1.763 2.387 2.689 3.562 0.936 1.187 1.905 2.364 2.906 3.529 1.006 1.175 2.046 2.338 3.126 3.487-3.674 2.292-7.32 4.257-10.926 5.907-3.531 1.617-7.004 2.931-10.42 3.951-3.34 0.999-6.612 1.722-9.801 2.167-3.118 0.444-6.159 0.628-9.104 0.572-3.986-0.081-7.8-0.606-11.41-1.546-3.504-0.913-6.809-2.213-9.907-3.86-3.007-1.605-5.816-3.543-8.411-5.786-2.515-2.173-4.838-4.642-6.943-7.374 2.291 4.917 5.03 9.39 8.197 13.392 3.305 4.182 7.088 7.855 11.312 10.974 4.421 3.274 9.343 5.939 14.719 7.943 5.64 2.098 11.78 3.462 18.376 4.014 2.494 0.211 5.048 0.306 7.665 0.273 2.659-0.025 5.386-0.174 8.165-0.456 2.829-0.285 5.719-0.702 8.664-1.261 3.001-0.568 6.053-1.282 9.156-2.137-0.228 2.076-0.499 4.152-0.805 6.219-0.312 2.084-0.653 4.15-1.027 6.227-0.368 2.081-0.769 4.153-1.195 6.231-0.433 2.074-0.881 4.16-1.35 6.247 4.015-4.386 7.797-9.01 11.317-13.896 3.55-4.929 6.818-10.099 9.782-15.516 2.982-5.437 5.633-11.1 7.946-16.988 2.314-5.878 4.272-11.952 5.861-18.215-1.908 0.473-3.784 0.895-5.633 1.277-1.833 0.373-3.631 0.7-5.403 0.978-1.756 0.278-3.492 0.512-5.197 0.693-1.688 0.181-3.349 0.315-4.994 0.408-2.788 0.146-5.506 0.16-8.162 0.035-2.612-0.121-5.174-0.377-7.664-0.771-2.451-0.387-4.857-0.906-7.209-1.56-2.32-0.63-4.59-1.41-6.81-2.31z" fill="url(#h)"/>
 <linearGradient id="g" x1="76.309" x2="99.017" y1="38.261" y2="38.261" gradientTransform="matrix(-1 0 0 1 219.08 0)" gradientUnits="userSpaceOnUse">
  <stop stop-color="#BB181D" offset="0"/>
  <stop stop-color="#E92127" offset="1"/>
 </linearGradient>
 <path d="m120.06 34.791l8.045 10.371c1.177-0.271 2.365-0.522 3.551-0.756 1.202-0.239 2.406-0.46 3.621-0.666 1.228-0.207 2.464-0.401 3.7-0.587 1.252-0.181 2.515-0.355 3.791-0.522l-7.284-11.271c-1.34 0.243-2.675 0.493-3.998 0.754-1.31 0.256-2.604 0.527-3.893 0.809-1.272 0.279-2.54 0.578-3.805 0.886-1.24 0.312-2.48 0.637-3.72 0.982" fill="url(#g)"/>
 <path d="m205.62 105.48c-5.06 27.563-19.44 49.144-34.907 64.616 14.19-16.23 28.46-38.63 34.91-64.62z" fill="#fff"/>
 <path d="m175.09 144.48s-23.428 7.698-44.442 2.557c20.726 6.063 44.305-0.67 44.305-0.67l0.13-1.89z" fill="#fff"/>
 <path d="m130.2 163.74c3.114 19.426 15.435 36.248 26.274 44.562-9.41-9.41-21.27-25.6-26.27-44.56z" fill="#fff"/>
 <path d="m88.839 112.43c-5.067 28.284 8.086 59.771 37.4 70.245-28.124-12.81-40.222-41.47-37.401-70.25z" fill="#fff"/>
 <path d="m88.839 112.43c8.325 11.744 18.019 15.31 25.882 17.173-7.66-2.52-17.518-7.15-25.881-17.17z" fill="#fff"/>
 <path d="m99.345 116.95c-1.892-1.078-9.085-4.097-10.506-4.521 1.207 0.75 8.311 3.88 10.506 4.52z" fill="#fff"/>
 <path d="m189.04 85.065l-4.444-9.667s-9.452-10.226-13.826-13.164c-0.124-0.086-0.267-0.536-0.267-0.536 1.522 0.726 13.904 12.682 13.904 12.682s-2.105-11.663-4.678-18.678c2.88 6.791 5.189 19.158 5.189 19.158l4.13 10.205z" fill="#fff"/>
 <polygon points="175.82 72.222 170.45 62.561 171.16 62.234" fill="#fff"/>
 <path d="m170.51 61.699c-15.517 25.631-44.142 54.015-81.669 50.729 37.589 5.54 68.179-24.651 81.669-50.731z" fill="#fff"/>
 <polygon points="170.45 62.561 170.06 62.433 170.51 61.699 171.21 62.257" fill="#fff"/>
 <path d="m132.94 59.042s13.864-1.375 15.595-1.996c-0.264 1.573-4.148 11.312-4.148 11.312l3.261-10.433c0 1e-3 -13.92 1.899-14.71 1.117z" fill="#fff"/>
 <polygon points="135.48 31.359 121.07 35.024 128.1 45.162 120.91 36.412 120.4 35.891 120.06 34.791" fill="#fff"/>
 <path d="m88.839 112.43c21.46-20.415 38.184-52.531 31.221-77.636 9.08 23.877-8.29 58.783-31.221 77.636z" fill="#fff"/>
 <polygon points="121.04 36.035 122.09 42.761 120.5 36.311 120.29 35.549" fill="#fff"/>
 <polygon points="103.74 45.789 94.138 55.604 104.25 46.616" fill="#fff"/>
 <path d="m73.202 54.607c19.979 4.399 24.557 34.56 15.637 57.82 6.761-23.87 3.605-52.321-15.637-57.823z" fill="#fff"/>
 <path d="m82.654 44.305s-8.54 8.247-9.453 10.302c0 0 0.208 0.125 0.235 0.075 1.395-2.462 9.218-10.377 9.218-10.377z" fill="#fff"/>
 <polygon points="75.931 75.723 66.393 69.315 65.827 69.586" fill="#fff"/>
 <path d="m82.105 76.64c-5.219-5.939-9.112-6-16.076-7.148l-0.288-0.287c6.013 0.159 11.445 1.225 16.364 7.435z" fill="#fff"/>
 <polygon points="65.741 69.205 62.831 80.163 66.206 69.519" fill="#fff"/>
 <path d="m88.839 112.43c-4.33-10.777-10.504-16.355-15.455-19.175 4.373 3.584 10.295 8.535 15.455 19.175z" fill="#fff"/>
 <path d="m47.759 83.49s-3.305 8.908-3.738 12.008l0.561-0.228c0.314-3.325 3.177-11.78 3.177-11.78z" fill="#fff"/>
 <polygon points="55.749 112.82 44.944 108.7 44.624 108.99 44.774 109.38" fill="#fff"/>
 <path d="m47.21 117.63c-0.358-3.578-2.228-8.539-2.228-8.539l-0.358-0.095c0-0.01 1.705 5.16 2.586 8.63z" fill="#fff"/>
 <path d="m80.935 104.45c-9.778-9.065-24.268-7.506-36.311 4.539 13.34-10.644 25.47-12.716 36.311-4.54z" fill="#fff"/>
 <polygon points="59.994 157.71 52.234 156.82 44.843 153.9 56.534 155 44.699 153.5 44.353 153.42 44.01 154.02 51.961 157.24" fill="#fff"/>
 <path d="m88.839 112.43c-30.046 0.897-44.092 35.153-44.829 41.59 1.213-4.5 14.986-39.07 44.829-41.59z" fill="#fff"/>
 <polygon points="44.449 153.74 45.976 148.87 45.75 149.1 44.438 152 44.01 154.02" fill="#fff"/>
 <path d="m36.88 144c-1.773-2.898-3.076-10.253-3.076-10.253s1.474 10.167 2.575 11.266c0.266-0.55 0.501-1.02 0.501-1.02z" fill="#fff"/>
 <path d="m51.322 156.98c-10.374 2.734-17.203 16.202-17.203 16.202s7.861-13.327 17.842-15.942l-0.639-0.26z" fill="#fff"/>
 <path d="m82.393 181.58c-8.224 20.164-8.348 29.74-8.348 39.446-1.218-9.58-0.817-20.14 8.348-39.45z" fill="#fff"/>
 <path d="m56.903 190.64s-7.084-3.001-10.015-5.064c2.5 2.506 10.071 6.11 10.071 6.11l-0.056-1.05z" fill="#fff"/>
 <path d="m82.393 181.58s-6.285 3.253-10.788 6.773l0.139 0.778c3.962-3.08 10.649-7.55 10.649-7.55z" fill="#fff"/>
 <path d="m88.839 112.43c-26.928 29.584-20.133 65.819-17.234 75.926-1.565-10.93-7.616-44.83 17.234-75.93z" fill="#fff"/>
 <path d="m47.21 117.63c-4.504-2.632-6.139-4.431-15.099-1.826 8.7-3.59 11.205-1.26 15.099 1.83z" fill="#fff"/>
</svg>
